<svg width="18" height="18" viewBox="0 0 18 18" fill="none" xmlns="http://www.w3.org/2000/svg">
<path d="M9 11.25C10.5533 11.25 11.8125 9.9908 11.8125 8.4375C11.8125 6.8842 10.5533 5.625 9 5.625C7.4467 5.625 6.1875 6.8842 6.1875 8.4375C6.1875 9.9908 7.4467 11.25 9 11.25Z" stroke="#6E6D7A" stroke-linecap="round" stroke-linejoin="round"/>
<path d="M4.48633 14.0207C4.90955 13.1871 5.55533 12.487 6.3521 11.9979C7.14887 11.5089 8.0655 11.25 9.00039 11.25C9.93528 11.25 10.8519 11.5089 11.6487 11.9979C12.4455 12.487 13.0912 13.1871 13.5145 14.0207" stroke="#6E6D7A" stroke-linecap="round" stroke-linejoin="round"/>
<path d="M14.0625 9L15.75 10.6875L17.4375 9" stroke="#6E6D7A" stroke-linecap="round" stroke-linejoin="round"/>
<path d="M0.5625 9L2.25 7.3125L3.9375 9" stroke="#6E6D7A" stroke-linecap="round" stroke-linejoin="round"/>
<path d="M15.7504 10.6871V8.99956C15.752 7.54118 15.2812 6.12152 14.4085 4.95306C13.5359 3.7846 12.3082 2.9302 10.9094 2.51776C9.51054 2.10531 8.01575 2.157 6.64874 2.66508C5.28174 3.17317 4.11605 4.11033 3.32617 5.33628" stroke="#6E6D7A" stroke-linecap="round" stroke-linejoin="round"/>
<path d="M2.25 7.3125V9C2.24841 10.4584 2.71919 11.878 3.59186 13.0465C4.46454 14.215 5.69218 15.0694 7.09101 15.4818C8.48985 15.8942 9.98465 15.8426 11.3517 15.3345C12.7187 14.8264 13.8843 13.8892 14.6742 12.6633" stroke="#6E6D7A" stroke-linecap="round" stroke-linejoin="round"/>
</svg>
